<svg xmlns="http://www.w3.org/2000/svg" data-name="Layer 1" viewBox="0 0 512 512"><path d="M452 45h-41.5V27a27 27 0 0 0-54 0v18h-201V27a27 27 0 0 0-54 0v18H60a37.542 37.542 0 0 0-37.5 37.5v392A37.542 37.542 0 0 0 60 512h392a37.542 37.542 0 0 0 37.5-37.5v-392A37.542 37.542 0 0 0 452 45Zm-80.5-18a12 12 0 0 1 24 0v52.78a12 12 0 0 1-24 0Zm-255 0a12 12 0 0 1 24 0v52.78a12 12 0 0 1-24 0Zm358 447.5A22.526 22.526 0 0 1 452 497H60a22.526 22.526 0 0 1-22.5-22.5V155.967h437Zm0-333.533h-437V82.5A22.526 22.526 0 0 1 60 60h41.5v19.78a27 27 0 0 0 54 0V60h201v19.78a27 27 0 0 0 54 0V60H452a22.526 22.526 0 0 1 22.5 22.5ZM437 466.994a7.5 7.5 0 1 0-7.5-7.5 7.5 7.5 0 0 0 7.5 7.5ZM338.632 295.8a7.5 7.5 0 1 0-7.5 7.5 7.5 7.5 0 0 0 7.5-7.5ZM204 352.393v32.958a67.316 67.316 0 1 0 134.632 0v-52.806a37.5 37.5 0 1 0-15 0v52.806a52.316 52.316 0 1 1-104.632 0v-32.958a70.096 70.096 0 0 0 62.5-69.593v-56.5a13.515 13.515 0 0 0-13.5-13.5h-13.389a15 15 0 1 0 0 15H266.5v55a55 55 0 0 1-110 0v-55h12.158a15 15 0 1 0 0-15H155a13.515 13.515 0 0 0-13.5 13.5v56.5a70.096 70.096 0 0 0 62.5 69.593ZM308.632 295.8a22.5 22.5 0 1 1 22.5 22.5 22.526 22.526 0 0 1-22.5-22.5ZM377 466.994a7.5 7.5 0 1 0-7.5-7.5 7.5 7.5 0 0 0 7.5 7.5Zm30 0a7.5 7.5 0 1 0-7.5-7.5 7.5 7.5 0 0 0 7.5 7.5Z"/></svg>