<?xml version="1.0" encoding="UTF-8" standalone="no"?>
<svg
   viewBox="0 0 64 64"
   version="1.1"
   id="svg5120"
   sodipodi:docname="medical-appointment.svg"
   inkscape:version="1.2.1 (9c6d41e410, 2022-07-14)"
   xmlns:inkscape="http://www.inkscape.org/namespaces/inkscape"
   xmlns:sodipodi="http://sodipodi.sourceforge.net/DTD/sodipodi-0.dtd"
   xmlns="http://www.w3.org/2000/svg"
   xmlns:svg="http://www.w3.org/2000/svg">
  <defs
     id="defs5124" />
  <sodipodi:namedview
     id="namedview5122"
     pagecolor="#505050"
     bordercolor="#eeeeee"
     borderopacity="1"
     inkscape:showpageshadow="0"
     inkscape:pageopacity="0"
     inkscape:pagecheckerboard="0"
     inkscape:deskcolor="#505050"
     showgrid="false"
     inkscape:zoom="13.25"
     inkscape:cx="32"
     inkscape:cy="32"
     inkscape:window-width="1920"
     inkscape:window-height="1046"
     inkscape:window-x="-11"
     inkscape:window-y="-11"
     inkscape:window-maximized="1"
     inkscape:current-layer="g5118" />
  <g
     data-name="Glyph"
     id="g5118">
    <path
       d="M10 62h44a5 5 0 0 0 5-5V11a5 5 0 0 0-5-5h-3.5v-.5a3.5 3.5 0 0 0-7 0V6h-8v-.5a3.5 3.5 0 0 0-7 0V6h-9v-.5a3.5 3.5 0 0 0-7 0V6H10a5 5 0 0 0-5 5v46a5 5 0 0 0 5 5Zm38-7.41V50a3.009 3.009 0 0 1 3-3h4.59ZM45.5 5.5a1.5 1.5 0 0 1 3 0v4a1.5 1.5 0 0 1-3 0Zm-15 0a1.5 1.5 0 0 1 3 0v4a1.5 1.5 0 0 1-3 0Zm-16 0a1.5 1.5 0 0 1 3 0v4a1.5 1.5 0 0 1-3 0ZM7 20h50v24a1 1 0 0 1-1 1h-5a5 5 0 0 0-5 5v5a1 1 0 0 1-1 1l-35-.06a3 3 0 0 1-3-3Z"
       id="path5100"
       style="fill:#43d38e;fill-opacity:1" />
    <rect
       width="8"
       height="8"
       x="46"
       y="23"
       rx="2"
       id="rect5102" />
    <rect
       width="8"
       height="8"
       x="46"
       y="33.5"
       rx="2"
       id="rect5104" />
    <rect
       width="8"
       height="8"
       x="34"
       y="44"
       rx="2"
       id="rect5106" />
    <rect
       width="8"
       height="8"
       x="34"
       y="33.5"
       rx="2"
       id="rect5108" />
    <rect
       width="8"
       height="8"
       x="34"
       y="23"
       rx="2"
       id="rect5110" />
    <rect
       width="8"
       height="8"
       x="10"
       y="23"
       rx="2"
       id="rect5112" />
    <path
       d="M19.5 54a10.5 10.5 0 0 0 5.06-19.7c.14-.38.86-2.47.87-2.49a1.492 1.492 0 0 0 .03-.81H28a2.006 2.006 0 0 0 2-2v-4a2.006 2.006 0 0 0-2-2h-4a2.006 2.006 0 0 0-2 2v4a2 2 0 0 0 .64 1.46l-3.58 2.55A10.5 10.5 0 0 0 19.5 54Zm-.09-19a.94.94 0 0 0 .63-.23l2.98-2.13c-.26.76-.54 1.57-.61 1.76a.992.992 0 0 0 .51 1.32 8.5 8.5 0 1 1-3.51-.72Z"
       id="path5114"
       style="fill:#4d6871;fill-opacity:1" />
    <path
       d="M15.5 46.5h1v1a2.006 2.006 0 0 0 2 2h2a2.006 2.006 0 0 0 2-2v-1h1a2.006 2.006 0 0 0 2-2v-2a2.006 2.006 0 0 0-2-2h-1v-1a2.006 2.006 0 0 0-2-2h-2a2.006 2.006 0 0 0-2 2v1h-1a2.006 2.006 0 0 0-2 2v2a2.006 2.006 0 0 0 2 2Z"
       id="path5116"
       style="fill:#43d38e;fill-opacity:1" />
  </g>
</svg>
