<svg xmlns="http://www.w3.org/2000/svg" enable-background="new 0 0 512 512" viewBox="0 0 512 512"><path fill="#fddc8d" d="M506.662,120.665v44.771c0,5.891-4.776,10.666-10.666,10.666H16.005c-5.891,0-10.666-4.776-10.666-10.666v-44.771c0-5.891,4.776-10.666,10.666-10.666h479.991C501.886,109.999,506.662,114.774,506.662,120.665z"/><path fill="#fff" d="M41.284,176.108H16.005c-5.866,0-10.666-4.8-10.666-10.666v-44.799c0-5.867,4.8-10.666,10.666-10.666h25.279c-5.92,0-10.666,4.8-10.666,10.666v44.799C30.618,171.308,35.364,176.108,41.284,176.108z" opacity=".5"/><path d="M506.662,120.643v44.799c0,5.867-4.8,10.666-10.666,10.666h-41.279c5.866,0,10.666-4.8,10.666-10.666v-44.799c0-5.867-4.8-10.666-10.666-10.666h41.279C501.862,109.976,506.662,114.776,506.662,120.643z" opacity=".15"/><rect width="450.777" height="330.559" x="30.611" y="176.102" fill="#d2d8d8"/><rect width="36.319" height="330.554" x="30.618" y="176.108" fill="#fff" opacity=".5"/><rect width="31.999" height="330.554" x="449.383" y="176.108" opacity=".15"/><path fill="#a5e0fa" d="M292.319,390.458V250.789c0-5.891-4.776-10.666-10.666-10.666H73.284c-5.891,0-10.666,4.776-10.666,10.666v139.669c0,5.891,4.776,10.666,10.666,10.666h208.369C287.544,401.124,292.319,396.349,292.319,390.458z"/><path fill="#fab280" d="M324.303,250.766v255.896h125.086V250.766c0-5.891-4.776-10.666-10.666-10.666H334.97C329.079,240.099,324.303,244.875,324.303,250.766z"/><path d="M449.383,250.773v255.889h-25.386V250.773c0-5.92-4.8-10.666-10.666-10.666h25.386C444.636,240.107,449.383,244.853,449.383,250.773z" opacity=".15"/><rect width="71.754" height="64.559" x="350.97" y="266.765" fill="#a5e0fa"/><circle cx="256" cy="77.977" r="72.639" fill="#fb888b"/><path d="M328.639,77.977c0,40.106-32.533,72.639-72.639,72.639c-3.573,0-7.147-0.267-10.56-0.8c35.092-5.066,62.079-35.306,62.079-71.838c0-36.533-26.986-66.772-62.079-71.839c3.413-0.533,6.987-0.8,10.56-0.8C296.106,5.338,328.639,37.871,328.639,77.977z" opacity=".15"/><path fill="#fff" d="M298.89,77.956L298.89,77.956c0,5.635-4.568,10.202-10.202,10.202h-22.485v22.519c0,5.635-4.568,10.202-10.202,10.202h0c-5.635,0-10.202-4.568-10.202-10.202V88.158h-22.485c-5.635,0-10.202-4.568-10.202-10.202v0c0-5.635,4.568-10.202,10.202-10.202h22.485V45.268c0-5.635,4.568-10.202,10.202-10.202h0c5.635,0,10.202,4.568,10.202,10.202v22.485h22.485C294.322,67.753,298.89,72.321,298.89,77.956z"/><path d="M495.995,181.434c8.823,0,16-7.177,16-16v-44.77c0-8.823-7.177-16-16-16H329.16c3.054-8.342,4.807-17.306,4.807-26.692c0-42.989-34.976-77.967-77.967-77.967s-77.967,34.978-77.967,77.967c0,9.387,1.753,18.35,4.807,26.692H16.005c-8.823,0-16,7.177-16,16v44.77c0,8.823,7.177,16,16,16h9.273v319.895H5.338c-2.945,0-5.333,2.385-5.333,5.333c0,2.948,2.388,5.333,5.333,5.333c148.09,0,353.591,0,501.324,0c2.945,0,5.333-2.385,5.333-5.333c0-2.948-2.388-5.333-5.333-5.333h-19.94V181.434H495.995z M256,10.671c37.109,0,67.301,30.192,67.301,67.301S293.109,145.273,256,145.273s-67.301-30.192-67.301-67.301S218.891,10.671,256,10.671z M10.671,165.434v-44.77c0-2.943,2.393-5.333,5.333-5.333h171.59c13.256,24.175,38.944,40.609,68.406,40.609s55.149-16.434,68.406-40.609h171.59c2.94,0,5.333,2.391,5.333,5.333v44.77c0,2.943-2.393,5.333-5.333,5.333c-167.133,0-329.484,0-479.991,0C13.065,170.767,10.671,168.377,10.671,165.434z M329.637,501.329V250.766c0-2.943,2.393-5.333,5.333-5.333h103.753c2.94,0,5.333,2.391,5.333,5.333v250.563H329.637z M476.056,501.329h-21.333V250.766c0-8.823-7.177-16-16-16H334.97c-8.823,0-16,7.177-16,16v250.563H35.944V181.434h440.111V501.329z"/><path d="M73.285 406.455c4.559 0 217.886 0 208.368 0 8.823 0 16-7.177 16-16V250.787c0-8.823-7.177-16-16-16H73.285c-8.823 0-16 7.177-16 16v139.669C57.285 399.278 64.462 406.455 73.285 406.455zM172.108 395.789h-46.72V245.453h46.72V395.789zM182.775 245.453h46.773v150.336h-46.773V245.453zM286.986 250.787v139.669c0 2.943-2.393 5.333-5.333 5.333h-41.439V245.453h41.439C284.593 245.453 286.986 247.844 286.986 250.787zM67.952 250.787c0-2.943 2.393-5.333 5.333-5.333h41.437v150.336H73.285c-2.94 0-5.333-2.391-5.333-5.333V250.787zM345.636 358.321c-2.945 0-5.333 2.385-5.333 5.333v19.448c0 2.948 2.388 5.333 5.333 5.333 2.945 0 5.333-2.385 5.333-5.333v-19.448C350.97 360.706 348.582 358.321 345.636 358.321zM422.723 261.432H350.97c-2.945 0-5.333 2.385-5.333 5.333v64.561c0 2.948 2.388 5.333 5.333 5.333h71.754c2.945 0 5.333-2.385 5.333-5.333v-64.561C428.057 263.818 425.669 261.432 422.723 261.432zM417.39 325.993h-61.087v-53.895h61.087V325.993zM223.313 93.493h17.151v17.182c0 8.568 6.969 15.536 15.536 15.536s15.536-6.969 15.536-15.536V93.493h17.151c8.568 0 15.536-6.969 15.536-15.536s-6.969-15.536-15.536-15.536h-17.151V45.27c0-8.568-6.969-15.536-15.536-15.536s-15.536 6.969-15.536 15.536V62.42h-17.151c-8.568 0-15.536 6.969-15.536 15.536S214.746 93.493 223.313 93.493zM223.313 73.087h22.484c2.945 0 5.333-2.385 5.333-5.333V45.27c0-2.687 2.185-4.87 4.87-4.87s4.87 2.182 4.87 4.87v22.484c0 2.948 2.388 5.333 5.333 5.333h22.484c2.685 0 4.87 2.182 4.87 4.87s-2.185 4.87-4.87 4.87h-22.484c-2.945 0-5.333 2.385-5.333 5.333v22.515c0 2.687-2.185 4.87-4.87 4.87s-4.87-2.182-4.87-4.87V88.16c0-2.948-2.388-5.333-5.333-5.333h-22.484c-2.685 0-4.87-2.182-4.87-4.87S220.628 73.087 223.313 73.087z"/></svg>