<svg xmlns="http://www.w3.org/2000/svg" viewBox="0 0 32 32"><path d="M21.94 29.64A6.13 6.13 0 0 0 17 25.08V17A11 11 0 0 0 27 6a1 1 0 0 0-1-1H6a1 1 0 0 0-1 1 11 11 0 0 0 10 11v8.13a6.13 6.13 0 0 0-4.94 4.56v.12a1 1 0 0 0 .18.86A1 1 0 0 0 11 31h10a1 1 0 0 0 .79-.38 1 1 0 0 0 .18-.86Z"/><path d="M14 22.07H4.44a1.44 1.44 0 1 1 0-2.88H14v-2H4.44a3.44 3.44 0 0 0 0 6.88H14zm5.07 0H18v2h1.07a8.61 8.61 0 0 1 6.12 2.53 1 1 0 0 0 .71.3 1 1 0 0 0 .7-1.71 10.57 10.57 0 0 0-7.53-3.12zM21.91 1h-3.42a10.74 10.74 0 0 0-5.15 1.31 1 1 0 0 0-.41 1.35 1 1 0 0 0 1.36.41A8.8 8.8 0 0 1 18.49 3h3.42a7.1 7.1 0 0 1 0 14.19H18v2h3.91a9.1 9.1 0 0 0 0-18.19z"/></svg>