<?xml version="1.0" encoding="UTF-8" standalone="no"?>
<svg
   viewBox="0 0 468 468"
   version="1.1"
   id="svg9755"
   sodipodi:docname="virus-news.svg"
   inkscape:version="1.2.1 (9c6d41e410, 2022-07-14)"
   xmlns:inkscape="http://www.inkscape.org/namespaces/inkscape"
   xmlns:sodipodi="http://sodipodi.sourceforge.net/DTD/sodipodi-0.dtd"
   xmlns="http://www.w3.org/2000/svg"
   xmlns:svg="http://www.w3.org/2000/svg">
  <defs
     id="defs9759" />
  <sodipodi:namedview
     id="namedview9757"
     pagecolor="#505050"
     bordercolor="#eeeeee"
     borderopacity="1"
     inkscape:showpageshadow="0"
     inkscape:pageopacity="0"
     inkscape:pagecheckerboard="0"
     inkscape:deskcolor="#505050"
     showgrid="false"
     inkscape:zoom="1.8119658"
     inkscape:cx="234"
     inkscape:cy="97.683962"
     inkscape:window-width="1920"
     inkscape:window-height="1046"
     inkscape:window-x="-11"
     inkscape:window-y="-11"
     inkscape:window-maximized="1"
     inkscape:current-layer="svg9755" />
  <path
     fill="#4c4c4c"
     d="M423 456.346H143.831c-2.762 0-5-2.238-5-5s2.238-5 5-5H423c19.299 0 35-15.716 35-35.032V20H88.568v49.737c0 2.762-2.238 5-5 5s-5-2.238-5-5V15a5 5 0 0 1 5-5H463a5 5 0 0 1 5 5v396.313c0 24.832-20.187 45.033-45 45.033z"
     id="path9741"
     style="fill:#43d38e;fill-opacity:1" />
  <path
     fill="#4c4c4c"
     d="M249 79.047H129c-2.762 0-5-2.238-5-5s2.238-5 5-5h120c2.762 0 5 2.238 5 5s-2.238 5-5 5zm0 55.043H129c-2.762 0-5-2.238-5-5s2.238-5 5-5h120c2.762 0 5 2.238 5 5s-2.238 5-5 5zm0 55.044H129c-2.762 0-5-2.238-5-5s2.238-5 5-5h120c2.762 0 5 2.238 5 5s-2.238 5-5 5zm0 55.044H129c-2.762 0-5-2.238-5-5s2.238-5 5-5h120c2.762 0 5 2.238 5 5s-2.238 5-5 5zm168.472 55.043H129c-2.762 0-5-2.238-5-5s2.238-5 5-5h288.472a5 5 0 1 1 0 10zm0 55.044H129c-2.762 0-5-2.238-5-5s2.238-5 5-5h288.472a5 5 0 1 1 0 10zm0 55.044H129c-2.762 0-5-2.238-5-5s2.238-5 5-5h288.472a5 5 0 1 1 0 10z"
     id="path9743"
     style="fill:#43d38e;fill-opacity:1" />
  <ellipse
     cx="346.777"
     cy="108.006"
     fill="#4c4c4c"
     rx="10.947"
     ry="10.955"
     id="ellipse9745"
     style="fill:#148478;fill-opacity:1" />
  <ellipse
     cx="361.67"
     cy="134.047"
     fill="#4c4c4c"
     rx="7"
     ry="7.005"
     id="ellipse9747"
     style="fill:#148478;fill-opacity:1" />
  <circle
     cx="379.439"
     cy="112.85"
     r="5.389"
     fill="#4c4c4c"
     id="circle9749"
     style="fill:#148478;fill-opacity:1" />
  <path
     fill="#4c4c4c"
     d="M420.472 105.544c-3.427 0-6.423 1.817-8.102 4.535h-7.855c-.96-8.619-4.373-16.504-9.522-22.947l5.573-5.578c3.107.733 6.508-.102 8.931-2.527 3.721-3.724 3.721-9.761 0-13.485a9.523 9.523 0 0 0-13.475 0c-2.423 2.425-3.258 5.829-2.525 8.938l-5.573 5.578c-6.437-5.15-14.313-8.564-22.924-9.526v-7.868c2.714-1.68 4.528-4.677 4.528-8.106 0-5.266-4.266-9.536-9.528-9.536s-9.528 4.269-9.528 9.536c0 3.428 1.814 6.426 4.528 8.106v7.868c-8.611.962-16.488 4.376-22.924 9.526l-5.573-5.578c.732-3.109-.102-6.513-2.525-8.938a9.523 9.523 0 0 0-13.475 0c-3.721 3.724-3.721 9.761 0 13.485 2.423 2.425 5.824 3.26 8.931 2.527l5.573 5.578c-5.148 6.443-8.561 14.327-9.522 22.947h-7.855c-1.679-2.718-4.674-4.535-8.102-4.535-5.262 0-9.528 4.269-9.528 9.535 0 5.267 4.266 9.536 9.528 9.536 3.427 0 6.423-1.817 8.102-4.536h7.855c.96 8.62 4.374 16.504 9.522 22.947l-5.573 5.578c-3.107-.733-6.508.102-8.931 2.527-3.721 3.724-3.721 9.761 0 13.485a9.523 9.523 0 0 0 13.475 0c2.423-2.425 3.258-5.829 2.525-8.938l5.574-5.578c6.437 5.15 14.313 8.564 22.924 9.526v7.868c-2.714 1.68-4.528 4.677-4.528 8.106 0 5.266 4.266 9.536 9.528 9.536s9.528-4.269 9.528-9.536c0-3.429-1.814-6.426-4.528-8.106v-7.868c8.611-.962 16.487-4.376 22.924-9.526l5.574 5.578c-.732 3.109.102 6.513 2.525 8.938a9.523 9.523 0 0 0 13.475 0c3.721-3.724 3.721-9.761 0-13.485-2.423-2.425-5.824-3.26-8.931-2.527l-5.573-5.578c5.148-6.442 8.562-14.327 9.522-22.947h7.855c1.679 2.718 4.675 4.536 8.102 4.536 5.262 0 9.528-4.269 9.528-9.536-.002-5.266-4.268-9.535-9.53-9.535zM360 149.911c-19.189 0-34.801-15.626-34.801-34.832S340.811 80.247 360 80.247s34.801 15.626 34.801 34.832-15.612 34.832-34.801 34.832zm57.472 53.751H299.528a5 5 0 0 0-5 5v46.646a5 5 0 0 0 5 5h117.943a5 5 0 0 0 5-5v-46.646a4.998 4.998 0 0 0-4.999-5zM83.492 99.76H5c-2.762 0-5 2.24-5 5.004v307.304c0 24.417 19.849 44.281 44.246 44.281s44.246-19.864 44.246-44.281V104.764a5.002 5.002 0 0 0-5-5.004zM49.246 412.611c0 2.764-2.238 5.004-5 5.004s-5-2.24-5-5.004V143.5c0-2.764 2.238-5.004 5-5.004s5 2.24 5 5.004v269.111z"
     id="path9751"
     style="fill:#43d38e;fill-opacity:1" />
  <ellipse
     cx="109.814"
     cy="451.343"
     fill="#4c4c4c"
     rx="6.642"
     ry="6.657"
     id="ellipse9753"
     style="fill:#43d38e;fill-opacity:1" />
</svg>
